<svg width="79" height="78" viewBox="0 0 79 78" fill="none" xmlns="http://www.w3.org/2000/svg">
<path d="M34.3388 28.4254C35.0772 27.8388 35.9543 27.4122 36.8945 27.1456V36.2292C35.9363 35.9571 35.0616 35.5239 34.3388 34.9496C33.0591 33.9331 32.564 32.7371 32.564 31.6875C32.564 30.6379 33.0591 29.4419 34.3388 28.4254Z" fill="#D89614"/>
<path d="M41.7695 50.9002V41.7246C42.8981 41.999 43.9268 42.4638 44.7639 43.0917C46.1499 44.1312 46.6445 45.3208 46.6445 46.3124C46.6445 47.3041 46.1499 48.4936 44.7639 49.5332C43.9268 50.161 42.8981 50.6258 41.7695 50.9002Z" fill="#D89614"/>
<path fill-rule="evenodd" clip-rule="evenodd" d="M39.332 7.3125C21.8315 7.3125 7.64453 21.4995 7.64453 39C7.64453 56.5005 21.8315 70.6875 39.332 70.6875C56.8326 70.6875 71.0195 56.5005 71.0195 39C71.0195 21.4995 56.8326 7.3125 39.332 7.3125ZM41.7695 19.5C41.7695 18.1538 40.6782 17.0625 39.332 17.0625C37.9858 17.0625 36.8945 18.1538 36.8945 19.5V22.1508C34.8571 22.5117 32.9143 23.3309 31.3064 24.6082C28.9912 26.4474 27.689 28.9942 27.689 31.6875C27.689 34.3808 28.9912 36.9276 31.3064 38.7668C32.9394 40.064 34.8882 40.8688 36.8945 41.2241V50.9001C35.7663 50.6256 34.7378 50.1609 33.9009 49.5332L31.0446 47.3908C29.9676 46.5831 28.4398 46.8013 27.6321 47.8783C26.8243 48.9552 27.0426 50.483 28.1195 51.2908L30.9758 53.4331C32.7087 54.7328 34.7753 55.5281 36.8945 55.8686V58.5C36.8945 59.8462 37.9858 60.9375 39.332 60.9375C40.6782 60.9375 41.7695 59.8462 41.7695 58.5V55.8687C43.889 55.5283 45.9559 54.733 47.689 53.4331C50.1104 51.6169 51.5195 49.0636 51.5195 46.3124C51.5195 43.5612 50.1104 41.0079 47.689 39.1917C45.9559 37.8918 43.889 37.0965 41.7695 36.7561V27.1458C42.7094 27.4124 43.5862 27.8389 44.3244 28.4254L45.6728 29.4965C46.7269 30.3339 48.2602 30.1582 49.0975 29.1041C49.9349 28.05 49.7592 26.5167 48.7051 25.6794L47.3567 24.6082C45.7491 23.3311 43.8066 22.512 41.7695 22.1509V19.5Z" fill="#D89614"/>
</svg>
