<svg width="24" height="24" viewBox="0 0 24 24" fill="none" xmlns="http://www.w3.org/2000/svg">
<path d="M13 4.75195C13 3.78545 12.2165 3.00195 11.25 3.00195H4.75C3.7835 3.00195 3 3.78545 3 4.75195V9.25195C3 10.2185 3.7835 11.002 4.75 11.002H11.25C12.2165 11.002 13 10.2185 13 9.25195V4.75195ZM8.98758 14.7338C8.98758 13.7673 8.20408 12.9838 7.23758 12.9838H4.75C3.7835 12.9838 3 13.7673 3 14.7338V19.2482C3 20.2147 3.7835 20.9982 4.75 20.9982H7.23758C8.20408 20.9982 8.98758 20.2147 8.98758 19.2482V14.7338ZM11.5 4.75195V9.25195C11.5 9.39002 11.388 9.50195 11.25 9.50195H4.75C4.61193 9.50195 4.5 9.39002 4.5 9.25195V4.75195C4.5 4.61388 4.61193 4.50195 4.75 4.50195H11.25C11.388 4.50195 11.5 4.61388 11.5 4.75195ZM7.48758 14.7338V19.2482C7.48758 19.3862 7.37565 19.4982 7.23758 19.4982H4.75C4.61193 19.4982 4.5 19.3862 4.5 19.2482V14.7338C4.5 14.5957 4.61193 14.4838 4.75 14.4838H7.23758C7.37565 14.4838 7.48758 14.5957 7.48758 14.7338ZM21.0017 14.7482C21.0017 13.7817 20.2182 12.9982 19.2517 12.9982H12.7517C11.8335 12.9982 11.0805 13.7053 11.0075 14.6046L11.0017 14.7482V19.2482C11.0017 20.2147 11.7852 20.9982 12.7517 20.9982H19.2517C20.2182 20.9982 21.0017 20.2147 21.0017 19.2482V14.7482ZM19.5017 14.7482V19.2482C19.5017 19.3862 19.3897 19.4982 19.2517 19.4982H12.7517C12.6136 19.4982 12.5017 19.3862 12.5017 19.2482V14.7482L12.5083 14.6908C12.5342 14.5804 12.6333 14.4982 12.7517 14.4982H19.2517C19.3897 14.4982 19.5017 14.6101 19.5017 14.7482ZM21.0017 4.75195C21.0017 3.78545 20.2182 3.00195 19.2517 3.00195H16.7517C15.7852 3.00195 15.0017 3.78545 15.0017 4.75195V9.25195C15.0017 10.2185 15.7852 11.002 16.7517 11.002H19.2517C20.2182 11.002 21.0017 10.2185 21.0017 9.25195V4.75195ZM19.5017 9.25195C19.5017 9.39002 19.3897 9.50195 19.2517 9.50195H16.7517C16.6136 9.50195 16.5017 9.39002 16.5017 9.25195V4.75195C16.5017 4.61388 16.6136 4.50195 16.7517 4.50195H19.2517C19.3897 4.50195 19.5017 4.61388 19.5017 4.75195V9.25195Z" fill="white"/>
</svg>
