<svg width="25" height="24" viewBox="0 0 25 24" fill="none" xmlns="http://www.w3.org/2000/svg">
<path d="M2.53613 12.322C2.46712 12.1146 2.46712 11.8904 2.53613 11.683C3.92313 7.51 7.86013 4.5 12.5001 4.5C17.1381 4.5 21.0731 7.507 22.4631 11.678C22.5331 11.885 22.5331 12.109 22.4631 12.317C21.0771 16.49 17.1401 19.5 12.5001 19.5C7.86213 19.5 3.92613 16.493 2.53613 12.322Z" stroke="black" stroke-width="1.5" stroke-linecap="round" stroke-linejoin="round"/>
<path d="M15.5 12C15.5 12.7956 15.1839 13.5587 14.6213 14.1213C14.0587 14.6839 13.2956 15 12.5 15C11.7044 15 10.9413 14.6839 10.3787 14.1213C9.81607 13.5587 9.5 12.7956 9.5 12C9.5 11.2044 9.81607 10.4413 10.3787 9.87868C10.9413 9.31607 11.7044 9 12.5 9C13.2956 9 14.0587 9.31607 14.6213 9.87868C15.1839 10.4413 15.5 11.2044 15.5 12Z" stroke="black" stroke-width="1.5" stroke-linecap="round" stroke-linejoin="round"/>
</svg>
