<svg width="14" height="18" viewBox="0 0 14 18" fill="none" xmlns="http://www.w3.org/2000/svg">
<path d="M10.1242 4C10.1242 4.8288 9.79493 5.62366 9.20887 6.20971C8.62282 6.79576 7.82797 7.125 6.99917 7.125C6.17037 7.125 5.37551 6.79576 4.78946 6.20971C4.20341 5.62366 3.87417 4.8288 3.87417 4C3.87417 3.1712 4.20341 2.37634 4.78946 1.79029C5.37551 1.20424 6.17037 0.875 6.99917 0.875C7.82797 0.875 8.62282 1.20424 9.20887 1.79029C9.79493 2.37634 10.1242 3.1712 10.1242 4ZM0.75 15.765C0.776779 14.1253 1.44695 12.5618 2.61598 11.4117C3.78501 10.2616 5.35924 9.61706 6.99917 9.61706C8.63909 9.61706 10.2133 10.2616 11.3824 11.4117C12.5514 12.5618 13.2216 14.1253 13.2483 15.765C11.2878 16.664 9.15596 17.1279 6.99917 17.125C4.76917 17.125 2.6525 16.6383 0.75 15.765Z" stroke="black" stroke-width="1.5" stroke-linecap="round" stroke-linejoin="round"/>
</svg>
